<?xml version="1.0" ?><!DOCTYPE svg  PUBLIC '-//W3C//DTD SVG 1.1//EN'  'http://www.w3.org/Graphics/SVG/1.1/DTD/svg11.dtd'><svg height="512px" style="enable-background:new 0 0 512 512;" version="1.1" viewBox="0 0 512 512" width="512px" xml:space="preserve" xmlns="http://www.w3.org/2000/svg" xmlns:xlink="http://www.w3.org/1999/xlink"><g id="_x31_043_x2C__chat_x2C__chating_x2C__massege_x2C__sign"><g><g><path d="M416,196c33.14,0,60,26.86,60,60c0,33.14-26.86,60-60,60s-60-26.86-60-60     C356,222.86,382.86,196,416,196z" style="fill:#57606F;"/></g><g><path d="M256,196c33.14,0,60,26.86,60,60c0,33.14-26.86,60-60,60c-33.14,0-60-26.86-60-60     C196,222.86,222.86,196,256,196z" style="fill:#F73E54;"/></g><g><path d="M96,196c33.14,0,60,26.86,60,60c0,33.14-26.86,60-60,60s-60-26.86-60-60     C36,222.86,62.86,196,96,196z" style="fill:#57606F;"/></g></g></g><g id="Layer_1"/></svg>